<svg xmlns="http://www.w3.org/2000/svg" xmlns:xlink="http://www.w3.org/1999/xlink" width="200" zoomAndPan="magnify" viewBox="0 0 150 37.5" height="50" preserveAspectRatio="xMidYMid meet" version="1.0"><defs><g/></defs><g fill-opacity="1"><g transform="translate(2.416047, 28.357993)"><g><path d="M 7.144531 0 C 7.511719 0 7.703125 -0.191406 7.703125 -0.558594 L 7.703125 -9.191406 L 13.988281 -0.339844 C 14.152344 -0.109375 14.386719 0 14.65625 0 L 20.886719 0 C 21.339844 0 21.503906 -0.3125 21.214844 -0.667969 L 13.59375 -11.195312 L 21.339844 -20.246094 C 21.636719 -20.601562 21.503906 -20.941406 21.023438 -20.941406 L 15.269531 -20.941406 C 15 -20.941406 14.765625 -20.863281 14.574219 -20.628906 L 7.703125 -12.734375 L 7.703125 -20.382812 C 7.703125 -20.753906 7.511719 -20.941406 7.144531 -20.941406 L 2.632812 -20.941406 C 2.261719 -20.941406 2.074219 -20.753906 2.074219 -20.382812 L 2.074219 -0.558594 C 2.074219 -0.191406 2.261719 0 2.632812 0 Z M 7.144531 0 "/></g></g></g><g fill-opacity="1"><g transform="translate(26.171861, 28.357993)"><g><path d="M 11.535156 -20.941406 C 11.113281 -21.800781 10.445312 -21.800781 10.023438 -20.941406 L 0.421875 -0.667969 C 0.246094 -0.273438 0.421875 0 0.832031 0 L 5.753906 0 C 6.054688 0 6.285156 -0.164062 6.394531 -0.449219 L 7.078125 -2.207031 L 14.480469 -2.207031 L 15.160156 -0.449219 C 15.269531 -0.164062 15.503906 0 15.804688 0 L 20.726562 0 C 21.132812 0 21.3125 -0.273438 21.132812 -0.667969 Z M 10.785156 -11.65625 L 12.84375 -6.394531 L 8.710938 -6.394531 Z M 10.785156 -11.65625 "/></g></g></g><g fill-opacity="1"><g transform="translate(49.42338, 28.357993)"><g><path d="M 15.613281 -7.867188 C 17.671875 -8.945312 18.84375 -11.179688 18.84375 -14.207031 C 18.84375 -17.792969 17.234375 -20.941406 11.332031 -20.941406 L 2.632812 -20.941406 C 2.261719 -20.941406 2.074219 -20.753906 2.074219 -20.382812 L 2.074219 -0.558594 C 2.074219 -0.191406 2.261719 0 2.632812 0 L 7.117188 0 C 7.484375 0 7.675781 -0.191406 7.675781 -0.558594 L 7.675781 -7.144531 L 10.035156 -7.144531 L 13.402344 -0.421875 C 13.539062 -0.136719 13.742188 0 14.042969 0 L 19.128906 0 C 19.550781 0 19.714844 -0.273438 19.523438 -0.667969 Z M 10.363281 -16.199219 C 11.480469 -16.199219 13.265625 -16.199219 13.265625 -14.152344 C 13.265625 -11.890625 11.140625 -11.890625 10.363281 -11.890625 L 7.675781 -11.890625 L 7.675781 -16.199219 Z M 10.363281 -16.199219 "/></g></g></g><g fill-opacity="1"><g transform="translate(71.816232, 28.357993)"><g><path d="M 10.390625 0 C 10.746094 0 10.949219 -0.191406 10.949219 -0.558594 L 10.949219 -16.199219 L 15.160156 -16.199219 C 15.53125 -16.199219 15.722656 -16.390625 15.722656 -16.757812 L 15.722656 -20.382812 C 15.722656 -20.753906 15.53125 -20.941406 15.160156 -20.941406 L 1.117188 -20.941406 C 0.75 -20.941406 0.558594 -20.753906 0.558594 -20.382812 L 0.558594 -16.757812 C 0.558594 -16.390625 0.75 -16.199219 1.117188 -16.199219 L 5.332031 -16.199219 L 5.332031 -0.558594 C 5.332031 -0.191406 5.535156 0 5.890625 0 Z M 10.390625 0 "/></g></g></g><g fill-opacity="1"><g transform="translate(89.793093, 28.357993)"><g><path d="M 7.089844 0 C 7.457031 0 7.648438 -0.191406 7.648438 -0.558594 L 7.648438 -7.0625 L 14.972656 -7.0625 L 14.972656 -0.558594 C 14.972656 -0.191406 15.160156 0 15.53125 0 L 19.988281 0 C 20.355469 0 20.546875 -0.191406 20.546875 -0.558594 L 20.546875 -20.382812 C 20.546875 -20.753906 20.355469 -20.941406 19.988281 -20.941406 L 15.53125 -20.941406 C 15.160156 -20.941406 14.972656 -20.753906 14.972656 -20.382812 L 14.972656 -11.808594 L 7.648438 -11.808594 L 7.648438 -20.382812 C 7.648438 -20.753906 7.457031 -20.941406 7.089844 -20.941406 L 2.632812 -20.941406 C 2.261719 -20.941406 2.074219 -20.753906 2.074219 -20.382812 L 2.074219 -0.558594 C 2.074219 -0.191406 2.261719 0 2.632812 0 Z M 7.089844 0 "/></g></g></g><g fill-opacity="1"><g transform="translate(114.107723, 28.357993)"><g><path d="M 7.089844 0 C 7.457031 0 7.648438 -0.191406 7.648438 -0.558594 L 7.648438 -20.382812 C 7.648438 -20.753906 7.457031 -20.941406 7.089844 -20.941406 L 2.632812 -20.941406 C 2.261719 -20.941406 2.074219 -20.753906 2.074219 -20.382812 L 2.074219 -0.558594 C 2.074219 -0.191406 2.261719 0 2.632812 0 Z M 7.089844 0 "/></g></g></g><g fill-opacity="1"><g transform="translate(125.501477, 28.357993)"><g><path d="M 7.144531 0 C 7.511719 0 7.703125 -0.191406 7.703125 -0.558594 L 7.703125 -9.191406 L 13.988281 -0.339844 C 14.152344 -0.109375 14.386719 0 14.65625 0 L 20.886719 0 C 21.339844 0 21.503906 -0.3125 21.214844 -0.667969 L 13.59375 -11.195312 L 21.339844 -20.246094 C 21.636719 -20.601562 21.503906 -20.941406 21.023438 -20.941406 L 15.269531 -20.941406 C 15 -20.941406 14.765625 -20.863281 14.574219 -20.628906 L 7.703125 -12.734375 L 7.703125 -20.382812 C 7.703125 -20.753906 7.511719 -20.941406 7.144531 -20.941406 L 2.632812 -20.941406 C 2.261719 -20.941406 2.074219 -20.753906 2.074219 -20.382812 L 2.074219 -0.558594 C 2.074219 -0.191406 2.261719 0 2.632812 0 Z M 7.144531 0 "/></g></g></g></svg>