<?xml version="1.0" standalone="no"?>
<!DOCTYPE svg PUBLIC "-//W3C//DTD SVG 20010904//EN"
 "http://www.w3.org/TR/2001/REC-SVG-20010904/DTD/svg10.dtd">
<svg version="1.0" xmlns="http://www.w3.org/2000/svg"
 width="2057.000000pt" height="2057.000000pt" viewBox="0 0 2057.000000 2057.000000"
 preserveAspectRatio="xMidYMid meet">
<metadata>
Created by potrace 1.14, written by Peter Selinger 2001-2017
</metadata>
<g transform="translate(0.000000,2057.000000) scale(0.100000,-0.100000)"
fill="#000000" stroke="none">
<path d="M9937 20564 c-1 -1 -67 -5 -147 -8 -80 -4 -170 -9 -200 -11 -135 -10
-218 -16 -255 -20 -22 -2 -69 -7 -105 -10 -36 -4 -78 -8 -95 -10 -16 -2 -50
-6 -75 -9 -68 -8 -143 -18 -163 -22 -10 -2 -46 -6 -80 -9 -34 -4 -64 -8 -67
-10 -4 -2 -28 -6 -56 -9 -27 -4 -71 -10 -99 -16 -27 -5 -66 -12 -85 -14 -194
-30 -583 -115 -885 -195 -524 -138 -1137 -359 -1650 -596 -139 -64 -505 -250
-625 -317 -63 -35 -122 -67 -130 -71 -8 -4 -24 -13 -35 -20 -11 -7 -49 -29
-85 -50 -36 -21 -72 -42 -80 -47 -315 -194 -434 -271 -630 -409 -131 -91 -360
-260 -370 -271 -3 -3 -23 -19 -45 -35 -41 -31 -254 -203 -315 -255 -21 -18
-126 -109 -194 -169 -257 -223 -665 -633 -906 -911 -46 -52 -97 -111 -115
-131 -101 -116 -327 -406 -507 -649 -56 -76 -269 -391 -345 -510 -209 -329
-484 -836 -648 -1195 -75 -166 -75 -165 -140 -320 -25 -60 -50 -119 -55 -130
-88 -205 -257 -697 -350 -1025 -23 -80 -43 -152 -45 -160 -2 -8 -15 -60 -29
-115 -49 -191 -114 -486 -142 -643 -2 -12 -8 -48 -14 -80 -6 -31 -12 -66 -14
-77 -2 -11 -7 -40 -11 -65 -4 -25 -9 -52 -10 -61 -2 -9 -6 -40 -10 -69 -4 -29
-8 -61 -10 -70 -2 -9 -6 -41 -10 -70 -4 -29 -8 -60 -10 -69 -5 -30 -19 -153
-29 -266 -4 -38 -9 -81 -11 -95 -2 -14 -7 -68 -10 -120 -4 -52 -8 -108 -10
-125 -20 -169 -28 -1014 -12 -1280 13 -215 30 -423 42 -515 3 -19 7 -62 10
-95 3 -33 7 -69 9 -80 2 -11 7 -49 10 -85 4 -36 11 -90 16 -120 5 -30 12 -75
15 -100 7 -51 40 -249 55 -325 5 -27 12 -63 15 -80 8 -49 13 -74 41 -200 14
-66 30 -138 34 -160 16 -76 90 -360 130 -500 22 -77 43 -149 45 -161 17 -76
229 -688 270 -779 7 -16 28 -66 45 -110 161 -406 410 -912 658 -1334 91 -156
235 -386 244 -389 4 -2 8 -8 8 -13 0 -9 130 -205 206 -310 18 -25 37 -56 42
-70 29 -74 473 -635 716 -903 247 -273 561 -588 786 -786 47 -41 87 -78 90
-81 11 -12 273 -231 365 -305 156 -125 390 -300 515 -385 36 -24 67 -47 70
-50 5 -5 198 -133 335 -221 385 -248 916 -529 1400 -741 316 -139 874 -343
1110 -407 17 -5 84 -24 150 -43 135 -39 270 -76 300 -82 11 -2 45 -11 75 -19
30 -8 67 -17 83 -21 15 -3 39 -7 55 -11 15 -3 52 -11 82 -19 31 -8 73 -17 95
-20 22 -3 46 -8 54 -11 19 -6 254 -51 306 -59 23 -3 52 -8 65 -10 50 -10 209
-35 256 -40 27 -3 74 -10 104 -15 30 -5 84 -12 120 -15 36 -4 79 -9 95 -10 17
-2 59 -7 95 -11 36 -3 79 -8 95 -9 17 -2 73 -7 125 -10 52 -4 109 -8 125 -11
195 -24 1089 -24 1385 1 25 2 86 6 135 10 50 4 104 8 120 9 17 2 64 7 105 10
41 4 86 9 100 11 14 2 50 6 80 10 63 7 124 14 160 20 14 2 45 6 70 10 25 3 56
8 70 10 14 2 43 7 65 10 23 3 52 7 65 10 14 3 36 7 50 9 14 3 43 8 65 11 56 8
93 15 140 25 22 5 56 12 75 15 263 44 744 167 1110 283 80 25 147 46 150 47 3
0 19 6 35 12 17 6 84 30 150 53 66 23 129 45 140 50 11 4 92 36 180 70 149 58
386 158 515 217 235 108 676 334 820 422 19 11 42 24 50 28 21 10 282 168 365
221 229 148 551 370 650 448 34 27 28 23 115 89 36 27 79 60 96 74 17 14 40
33 50 41 130 104 339 280 443 375 230 209 460 433 608 591 119 129 276 302
314 348 13 16 31 37 39 46 25 27 153 182 190 230 19 25 37 47 40 50 28 23 323
424 326 442 1 7 41 69 89 138 82 118 276 417 315 484 10 17 52 90 95 161 42
72 81 139 86 150 5 11 20 38 32 60 181 317 418 815 553 1165 25 63 49 124 54
135 23 47 139 382 190 545 18 58 41 130 51 160 76 235 231 881 273 1145 12 72
17 101 21 115 2 8 6 35 9 60 3 25 8 54 10 66 2 12 7 45 11 74 4 29 9 62 11 74
2 12 7 44 10 72 2 28 7 61 9 73 2 13 7 52 11 89 3 36 7 74 9 83 2 10 6 51 10
91 3 40 8 93 10 118 3 25 7 81 10 125 3 44 8 105 10 135 22 265 23 1140 1
1280 -2 14 -7 75 -11 135 -3 61 -8 121 -9 135 -2 14 -6 61 -10 105 -4 44 -8
91 -10 105 -2 14 -7 52 -11 85 -7 63 -11 98 -19 155 -3 19 -8 58 -11 85 -3 28
-8 59 -10 70 -2 11 -7 43 -10 70 -4 28 -8 57 -10 65 -3 8 -7 33 -10 55 -13 89
-77 417 -106 541 -16 72 -31 140 -33 150 -6 26 -44 181 -56 224 -68 241 -131
456 -177 595 -58 179 -92 274 -195 545 -12 30 -59 145 -106 255 -245 580 -555
1156 -905 1680 -85 127 -237 347 -247 355 -3 3 -59 77 -125 165 -66 88 -127
169 -136 180 -10 11 -75 90 -145 175 -71 85 -138 164 -149 176 -11 12 -45 50
-75 85 -112 128 -170 189 -415 434 -225 226 -365 358 -480 456 -22 19 -42 36
-45 39 -3 3 -34 30 -70 60 -36 30 -67 57 -70 60 -3 3 -52 44 -110 90 -58 47
-107 88 -110 91 -12 14 -385 291 -490 363 -63 44 -135 94 -160 111 -25 17
-119 79 -210 137 -514 327 -1045 603 -1613 838 -265 109 -727 275 -907 324
-30 8 -100 29 -155 46 -55 16 -109 32 -120 34 -11 3 -99 25 -195 50 -96 25
-186 47 -200 50 -14 2 -68 14 -120 26 -95 21 -304 63 -370 74 -19 3 -44 7 -55
10 -11 2 -40 7 -65 11 -25 4 -54 9 -65 11 -22 5 -32 6 -195 29 -63 8 -128 17
-145 20 -41 5 -129 16 -257 30 -24 2 -74 7 -113 10 -38 3 -88 8 -110 10 -37 4
-124 10 -310 21 -72 5 -863 12 -868 8z"/>
</g>
</svg>
